<mxfile host="app.diagrams.net" modified="2022-07-07T13:46:32.299Z" agent="5.0 (Windows NT 10.0; Win64; x64) AppleWebKit/537.36 (KHTML, like Gecko) Chrome/103.0.0.0 Safari/537.36" etag="rtWM3QVI7w_JSFaAtI-5" version="20.0.4" type="github">
  <diagram id="C5RBs43oDa-KdzZeNtuy" name="Page-1">
    <mxGraphModel dx="897" dy="594" grid="1" gridSize="10" guides="1" tooltips="1" connect="1" arrows="1" fold="1" page="1" pageScale="1" pageWidth="827" pageHeight="1169" math="0" shadow="0">
      <root>
        <mxCell id="WIyWlLk6GJQsqaUBKTNV-0" />
        <mxCell id="WIyWlLk6GJQsqaUBKTNV-1" parent="WIyWlLk6GJQsqaUBKTNV-0" />
        <mxCell id="hppU5eR6jtg4XW3ueCOu-8" value="&lt;span style=&quot;&quot;&gt;funcionÃ¡rio&lt;/span&gt;" style="rounded=0;whiteSpace=wrap;html=1;" parent="WIyWlLk6GJQsqaUBKTNV-1" vertex="1">
          <mxGeometry x="20" y="180" width="120" height="60" as="geometry" />
        </mxCell>
        <mxCell id="hppU5eR6jtg4XW3ueCOu-9" value="idFuncionario" style="ellipse;whiteSpace=wrap;html=1;" parent="WIyWlLk6GJQsqaUBKTNV-1" vertex="1">
          <mxGeometry x="300" y="50" width="110" height="50" as="geometry" />
        </mxCell>
        <mxCell id="hppU5eR6jtg4XW3ueCOu-10" value="nomeFuncionario" style="ellipse;whiteSpace=wrap;html=1;" parent="WIyWlLk6GJQsqaUBKTNV-1" vertex="1">
          <mxGeometry x="290" y="120" width="110" height="50" as="geometry" />
        </mxCell>
        <mxCell id="hppU5eR6jtg4XW3ueCOu-11" value="salarioFuncionario" style="ellipse;whiteSpace=wrap;html=1;" parent="WIyWlLk6GJQsqaUBKTNV-1" vertex="1">
          <mxGeometry x="280" y="190" width="110" height="50" as="geometry" />
        </mxCell>
        <mxCell id="hppU5eR6jtg4XW3ueCOu-12" value="" style="endArrow=none;html=1;rounded=0;exitX=1;exitY=0.5;exitDx=0;exitDy=0;" parent="WIyWlLk6GJQsqaUBKTNV-1" source="hppU5eR6jtg4XW3ueCOu-8" target="hppU5eR6jtg4XW3ueCOu-9" edge="1">
          <mxGeometry width="50" height="50" relative="1" as="geometry">
            <mxPoint x="180" y="290" as="sourcePoint" />
            <mxPoint x="230" y="240" as="targetPoint" />
          </mxGeometry>
        </mxCell>
        <mxCell id="hppU5eR6jtg4XW3ueCOu-13" value="" style="endArrow=none;html=1;rounded=0;exitX=1;exitY=0.5;exitDx=0;exitDy=0;entryX=0;entryY=0.5;entryDx=0;entryDy=0;" parent="WIyWlLk6GJQsqaUBKTNV-1" source="hppU5eR6jtg4XW3ueCOu-8" target="hppU5eR6jtg4XW3ueCOu-11" edge="1">
          <mxGeometry width="50" height="50" relative="1" as="geometry">
            <mxPoint x="80" y="190" as="sourcePoint" />
            <mxPoint x="240" y="220" as="targetPoint" />
          </mxGeometry>
        </mxCell>
        <mxCell id="hppU5eR6jtg4XW3ueCOu-14" value="" style="endArrow=none;html=1;rounded=0;exitX=1;exitY=0.5;exitDx=0;exitDy=0;" parent="WIyWlLk6GJQsqaUBKTNV-1" source="hppU5eR6jtg4XW3ueCOu-8" target="hppU5eR6jtg4XW3ueCOu-10" edge="1">
          <mxGeometry width="50" height="50" relative="1" as="geometry">
            <mxPoint x="110" y="160" as="sourcePoint" />
            <mxPoint x="83.23929586854331" y="179.7178876056297" as="targetPoint" />
          </mxGeometry>
        </mxCell>
        <mxCell id="hppU5eR6jtg4XW3ueCOu-16" value="nomeProjeto" style="ellipse;whiteSpace=wrap;html=1;" parent="WIyWlLk6GJQsqaUBKTNV-1" vertex="1">
          <mxGeometry x="620" y="410" width="110" height="50" as="geometry" />
        </mxCell>
        <mxCell id="hppU5eR6jtg4XW3ueCOu-17" value="idProjeto" style="ellipse;whiteSpace=wrap;html=1;" parent="WIyWlLk6GJQsqaUBKTNV-1" vertex="1">
          <mxGeometry x="620" y="490" width="110" height="50" as="geometry" />
        </mxCell>
        <mxCell id="hppU5eR6jtg4XW3ueCOu-18" value="projeto" style="rounded=0;whiteSpace=wrap;html=1;" parent="WIyWlLk6GJQsqaUBKTNV-1" vertex="1">
          <mxGeometry x="400" y="430" width="120" height="60" as="geometry" />
        </mxCell>
        <mxCell id="hppU5eR6jtg4XW3ueCOu-19" value="" style="endArrow=none;html=1;rounded=0;exitX=0;exitY=0.5;exitDx=0;exitDy=0;entryX=1;entryY=0.5;entryDx=0;entryDy=0;" parent="WIyWlLk6GJQsqaUBKTNV-1" source="hppU5eR6jtg4XW3ueCOu-17" target="hppU5eR6jtg4XW3ueCOu-18" edge="1">
          <mxGeometry width="50" height="50" relative="1" as="geometry">
            <mxPoint x="420" y="545" as="sourcePoint" />
            <mxPoint x="230" y="380" as="targetPoint" />
          </mxGeometry>
        </mxCell>
        <mxCell id="hppU5eR6jtg4XW3ueCOu-20" value="" style="endArrow=none;html=1;rounded=0;exitX=0;exitY=0.5;exitDx=0;exitDy=0;entryX=1;entryY=0.5;entryDx=0;entryDy=0;" parent="WIyWlLk6GJQsqaUBKTNV-1" source="hppU5eR6jtg4XW3ueCOu-16" target="hppU5eR6jtg4XW3ueCOu-18" edge="1">
          <mxGeometry width="50" height="50" relative="1" as="geometry">
            <mxPoint x="100.33999999999992" y="569.8" as="sourcePoint" />
            <mxPoint x="130" y="540" as="targetPoint" />
          </mxGeometry>
        </mxCell>
        <mxCell id="hppU5eR6jtg4XW3ueCOu-21" value="" style="endArrow=none;html=1;rounded=0;entryX=0.5;entryY=1;entryDx=0;entryDy=0;exitX=0.5;exitY=0;exitDx=0;exitDy=0;" parent="WIyWlLk6GJQsqaUBKTNV-1" source="hppU5eR6jtg4XW3ueCOu-22" target="hppU5eR6jtg4XW3ueCOu-8" edge="1">
          <mxGeometry width="50" height="50" relative="1" as="geometry">
            <mxPoint x="180" y="290" as="sourcePoint" />
            <mxPoint x="230" y="240" as="targetPoint" />
          </mxGeometry>
        </mxCell>
        <mxCell id="hppU5eR6jtg4XW3ueCOu-22" value="trabalha" style="rhombus;whiteSpace=wrap;html=1;shadow=0;fontFamily=Helvetica;fontSize=12;align=center;strokeWidth=1;spacing=6;spacingTop=-4;" parent="WIyWlLk6GJQsqaUBKTNV-1" vertex="1">
          <mxGeometry x="30" y="420" width="100" height="80" as="geometry" />
        </mxCell>
        <mxCell id="hppU5eR6jtg4XW3ueCOu-23" value="" style="endArrow=none;html=1;rounded=0;entryX=1;entryY=0.5;entryDx=0;entryDy=0;exitX=0;exitY=0.5;exitDx=0;exitDy=0;" parent="WIyWlLk6GJQsqaUBKTNV-1" source="hppU5eR6jtg4XW3ueCOu-18" target="hppU5eR6jtg4XW3ueCOu-22" edge="1">
          <mxGeometry width="50" height="50" relative="1" as="geometry">
            <mxPoint x="90" y="460" as="sourcePoint" />
            <mxPoint x="90" y="390" as="targetPoint" />
          </mxGeometry>
        </mxCell>
        <mxCell id="hppU5eR6jtg4XW3ueCOu-24" value="&lt;b&gt;&lt;font style=&quot;font-size: 18px;&quot;&gt;n&lt;/font&gt;&lt;/b&gt;" style="text;html=1;strokeColor=none;fillColor=none;align=center;verticalAlign=middle;whiteSpace=wrap;rounded=0;" parent="WIyWlLk6GJQsqaUBKTNV-1" vertex="1">
          <mxGeometry x="140" y="421" width="60" height="30" as="geometry" />
        </mxCell>
        <mxCell id="hppU5eR6jtg4XW3ueCOu-32" value="&lt;b&gt;&lt;font style=&quot;font-size: 18px;&quot;&gt;n&lt;/font&gt;&lt;/b&gt;" style="text;html=1;strokeColor=none;fillColor=none;align=center;verticalAlign=middle;whiteSpace=wrap;rounded=0;" parent="WIyWlLk6GJQsqaUBKTNV-1" vertex="1">
          <mxGeometry x="80" y="326" width="60" height="30" as="geometry" />
        </mxCell>
        <mxCell id="hppU5eR6jtg4XW3ueCOu-36" value="departamento" style="rounded=0;whiteSpace=wrap;html=1;" parent="WIyWlLk6GJQsqaUBKTNV-1" vertex="1">
          <mxGeometry x="400" y="320" width="120" height="60" as="geometry" />
        </mxCell>
        <mxCell id="hppU5eR6jtg4XW3ueCOu-38" value="trabalha" style="rhombus;whiteSpace=wrap;html=1;shadow=0;fontFamily=Helvetica;fontSize=12;align=center;strokeWidth=1;spacing=6;spacingTop=-4;" parent="WIyWlLk6GJQsqaUBKTNV-1" vertex="1">
          <mxGeometry x="200" y="310" width="100" height="80" as="geometry" />
        </mxCell>
        <mxCell id="hppU5eR6jtg4XW3ueCOu-39" value="" style="endArrow=none;html=1;rounded=0;fontSize=18;exitX=1;exitY=1;exitDx=0;exitDy=0;entryX=0;entryY=0.5;entryDx=0;entryDy=0;" parent="WIyWlLk6GJQsqaUBKTNV-1" source="hppU5eR6jtg4XW3ueCOu-8" target="hppU5eR6jtg4XW3ueCOu-38" edge="1">
          <mxGeometry width="50" height="50" relative="1" as="geometry">
            <mxPoint x="580" y="400" as="sourcePoint" />
            <mxPoint x="630" y="350" as="targetPoint" />
          </mxGeometry>
        </mxCell>
        <mxCell id="hppU5eR6jtg4XW3ueCOu-40" value="" style="endArrow=none;html=1;rounded=0;fontSize=18;exitX=1;exitY=0.5;exitDx=0;exitDy=0;entryX=0;entryY=0.5;entryDx=0;entryDy=0;" parent="WIyWlLk6GJQsqaUBKTNV-1" source="hppU5eR6jtg4XW3ueCOu-38" target="hppU5eR6jtg4XW3ueCOu-36" edge="1">
          <mxGeometry width="50" height="50" relative="1" as="geometry">
            <mxPoint x="150" y="250" as="sourcePoint" />
            <mxPoint x="210" y="320" as="targetPoint" />
          </mxGeometry>
        </mxCell>
        <mxCell id="hppU5eR6jtg4XW3ueCOu-43" value="&lt;b&gt;&lt;font style=&quot;font-size: 18px;&quot;&gt;1&lt;/font&gt;&lt;/b&gt;" style="text;html=1;strokeColor=none;fillColor=none;align=center;verticalAlign=middle;whiteSpace=wrap;rounded=0;" parent="WIyWlLk6GJQsqaUBKTNV-1" vertex="1">
          <mxGeometry x="300" y="310" width="60" height="30" as="geometry" />
        </mxCell>
        <mxCell id="hppU5eR6jtg4XW3ueCOu-44" value="&lt;b&gt;&lt;font style=&quot;font-size: 18px;&quot;&gt;n&lt;/font&gt;&lt;/b&gt;" style="text;html=1;strokeColor=none;fillColor=none;align=center;verticalAlign=middle;whiteSpace=wrap;rounded=0;" parent="WIyWlLk6GJQsqaUBKTNV-1" vertex="1">
          <mxGeometry x="170" y="270" width="60" height="30" as="geometry" />
        </mxCell>
        <mxCell id="hppU5eR6jtg4XW3ueCOu-48" value="" style="endArrow=none;html=1;rounded=0;entryX=0.5;entryY=1;entryDx=0;entryDy=0;" parent="WIyWlLk6GJQsqaUBKTNV-1" edge="1">
          <mxGeometry width="50" height="50" relative="1" as="geometry">
            <mxPoint x="330" y="359" as="sourcePoint" />
            <mxPoint x="330" y="339" as="targetPoint" />
          </mxGeometry>
        </mxCell>
        <mxCell id="hppU5eR6jtg4XW3ueCOu-49" value="" style="endArrow=none;html=1;rounded=0;entryX=0.5;entryY=1;entryDx=0;entryDy=0;" parent="WIyWlLk6GJQsqaUBKTNV-1" edge="1">
          <mxGeometry width="50" height="50" relative="1" as="geometry">
            <mxPoint x="170" y="469" as="sourcePoint" />
            <mxPoint x="170" y="449" as="targetPoint" />
          </mxGeometry>
        </mxCell>
        <mxCell id="hppU5eR6jtg4XW3ueCOu-50" value="" style="endArrow=none;html=1;rounded=0;entryX=0.25;entryY=1;entryDx=0;entryDy=0;" parent="WIyWlLk6GJQsqaUBKTNV-1" edge="1">
          <mxGeometry width="50" height="50" relative="1" as="geometry">
            <mxPoint x="167" y="310" as="sourcePoint" />
            <mxPoint x="182" y="300" as="targetPoint" />
          </mxGeometry>
        </mxCell>
        <mxCell id="hppU5eR6jtg4XW3ueCOu-51" value="" style="endArrow=none;html=1;rounded=0;entryX=0.5;entryY=1;entryDx=0;entryDy=0;" parent="WIyWlLk6GJQsqaUBKTNV-1" edge="1">
          <mxGeometry width="50" height="50" relative="1" as="geometry">
            <mxPoint x="70" y="342" as="sourcePoint" />
            <mxPoint x="91" y="342" as="targetPoint" />
          </mxGeometry>
        </mxCell>
      </root>
    </mxGraphModel>
  </diagram>
</mxfile>
